<?xml version="1.0" encoding="UTF-8"?>
<svg xmlns="http://www.w3.org/2000/svg" width="139" height="104" viewBox="0 0 139 104" fill="none">
  <path d="M51.3067 103.999C22.6633 103.913 0 85.4526 0 52.4759C0 19.1526 22.4033 0.215938 50.8733 0.215938C55.2067 0.215938 78.5633 0.0859375 78.5633 0.0859375V9.9226C78.5633 35.8359 57.5033 56.8959 31.59 56.8959H23.8767L27.0833 45.6293H31.5467C50.1367 45.6293 65.4333 31.3726 67.08 13.2159L50.5267 13.1726C30.2467 13.6926 14.6033 27.5593 14.6033 52.4759C14.6033 77.4359 30.6367 91.0859 51.2633 91.3026L51.3067 103.999Z" fill="#184A45"></path>
  <path d="M87.3656 0C116.009 0.0866667 138.672 18.5467 138.672 51.5233C138.672 84.8033 116.269 103.783 87.7989 103.783C83.4656 103.783 60.1089 103.913 60.1089 103.913V94.0767C60.1089 68.1633 81.1689 47.1033 107.082 47.1033H114.752L111.546 58.37H107.082C88.4922 58.37 73.1956 72.6267 71.5489 90.7833L88.1022 90.8267C108.382 90.3067 124.026 76.44 124.026 51.5233C124.026 26.5633 107.992 12.9133 87.3656 12.6967V0Z" fill="#FC766B"></path>
</svg>
