<svg version="1.1" id="Vrstva_1" xmlns="http://www.w3.org/2000/svg" xmlns:xlink="http://www.w3.org/1999/xlink" x="0px" y="0px" viewBox="0 0 148 48" enable-background="new 0 0 148 48" xml:space="preserve">
<g id="logo">
	<g id="Group" transform="translate(0.000000, 0.000000)">
		<path id="Combined-Shape" fill="#3A50DD" d="M20.4,46.4c0.4,0,0.8,0.4,0.8,0.8c0,0.4-0.4,0.8-0.8,0.8s-0.8-0.4-0.8-0.8
			C19.6,46.8,19.9,46.4,20.4,46.4z M38.6,46.4c0.4,0,0.8,0.4,0.8,0.8c0,0.4-0.4,0.8-0.8,0.8c-0.4,0-0.8-0.4-0.8-0.8
			C37.8,46.8,38.2,46.4,38.6,46.4z M29.5,46.4c0.4,0,0.8,0.4,0.8,0.8c0,0.4-0.4,0.8-0.8,0.8c-0.4,0-0.8-0.4-0.8-0.8
			C28.7,46.8,29.1,46.4,29.5,46.4z M11.3,40.8c0.4,0,0.8,0.4,0.8,0.8c0,0.4-0.4,0.8-0.8,0.8c-0.4,0-0.8-0.4-0.8-0.8
			C10.5,41.1,10.8,40.8,11.3,40.8z M20.4,40.8c0.4,0,0.8,0.4,0.8,0.8c0,0.4-0.4,0.8-0.8,0.8s-0.8-0.4-0.8-0.8
			C19.6,41.1,19.9,40.8,20.4,40.8z M38.6,40.8c0.4,0,0.8,0.4,0.8,0.8c0,0.4-0.4,0.8-0.8,0.8c-0.4,0-0.8-0.4-0.8-0.8
			C37.8,41.1,38.2,40.8,38.6,40.8z M47.7,40.8c0.4,0,0.8,0.4,0.8,0.8c0,0.4-0.4,0.8-0.8,0.8c-0.4,0-0.8-0.4-0.8-0.8
			C46.9,41.1,47.3,40.8,47.7,40.8z M29.5,40.8c0.4,0,0.8,0.4,0.8,0.8c0,0.4-0.4,0.8-0.8,0.8c-0.4,0-0.8-0.4-0.8-0.8
			C28.7,41.1,29.1,40.8,29.5,40.8z M29.5,33.8c1.2,0,2.1,1,2.1,2.1c0,1.2-1,2.1-2.1,2.1c-1.2,0-2.1-1-2.1-2.1
			C27.4,34.7,28.3,33.8,29.5,33.8z M38.6,35.1c0.4,0,0.8,0.4,0.8,0.8c0,0.4-0.4,0.8-0.8,0.8c-0.4,0-0.8-0.4-0.8-0.8
			C37.8,35.5,38.2,35.1,38.6,35.1z M20.4,35.1c0.4,0,0.8,0.4,0.8,0.8c0,0.4-0.4,0.8-0.8,0.8s-0.8-0.4-0.8-0.8
			C19.6,35.5,19.9,35.1,20.4,35.1z M11.3,35.1c0.4,0,0.8,0.4,0.8,0.8c0,0.4-0.4,0.8-0.8,0.8c-0.4,0-0.8-0.4-0.8-0.8
			C10.5,35.5,10.8,35.1,11.3,35.1z M47.7,35.1c0.4,0,0.8,0.4,0.8,0.8c0,0.4-0.4,0.8-0.8,0.8c-0.4,0-0.8-0.4-0.8-0.8
			C46.9,35.5,47.3,35.1,47.7,35.1z M29.5,28.2c1.2,0,2.1,1,2.1,2.1s-1,2.1-2.1,2.1c-1.2,0-2.1-1-2.1-2.1S28.3,28.2,29.5,28.2z
			 M20.4,28.2c1.2,0,2.1,1,2.1,2.1s-1,2.1-2.1,2.1s-2.1-1-2.1-2.1S19.2,28.2,20.4,28.2z M38.6,28.2c1.2,0,2.1,1,2.1,2.1
			s-1,2.1-2.1,2.1c-1.2,0-2.1-1-2.1-2.1S37.4,28.2,38.6,28.2z M47.7,29.5c0.4,0,0.8,0.4,0.8,0.8s-0.4,0.8-0.8,0.8
			c-0.4,0-0.8-0.4-0.8-0.8S47.3,29.5,47.7,29.5z M11.3,29.5c0.4,0,0.8,0.4,0.8,0.8s-0.4,0.8-0.8,0.8c-0.4,0-0.8-0.4-0.8-0.8
			S10.8,29.5,11.3,29.5z M29.5,22.5c1.2,0,2.1,1,2.1,2.1s-1,2.1-2.1,2.1c-1.2,0-2.1-1-2.1-2.1S28.3,22.5,29.5,22.5z M20.4,22.5
			c1.2,0,2.1,1,2.1,2.1s-1,2.1-2.1,2.1s-2.1-1-2.1-2.1S19.2,22.5,20.4,22.5z M11.3,22.5c1.2,0,2.1,1,2.1,2.1s-1,2.1-2.1,2.1
			s-2.1-1-2.1-2.1S10.1,22.5,11.3,22.5z M38.6,22.5c1.2,0,2.1,1,2.1,2.1s-1,2.1-2.1,2.1c-1.2,0-2.1-1-2.1-2.1S37.4,22.5,38.6,22.5z
			 M47.7,22.5c1.2,0,2.1,1,2.1,2.1s-1,2.1-2.1,2.1c-1.2,0-2.1-1-2.1-2.1S46.5,22.5,47.7,22.5z M29.5,16.9c1.2,0,2.1,1,2.1,2.1
			s-1,2.1-2.1,2.1c-1.2,0-2.1-1-2.1-2.1S28.3,16.9,29.5,16.9z M20.4,16.9c1.2,0,2.1,1,2.1,2.1s-1,2.1-2.1,2.1s-2.1-1-2.1-2.1
			S19.2,16.9,20.4,16.9z M11.3,16.9c1.2,0,2.1,1,2.1,2.1s-1,2.1-2.1,2.1s-2.1-1-2.1-2.1S10.1,16.9,11.3,16.9z M2.1,16.9
			c1.2,0,2.1,1,2.1,2.1s-1,2.1-2.1,2.1S0,20.2,0,19S1,16.9,2.1,16.9z M38.6,16.9c1.2,0,2.1,1,2.1,2.1s-1,2.1-2.1,2.1
			c-1.2,0-2.1-1-2.1-2.1S37.4,16.9,38.6,16.9z M47.7,16.9c1.2,0,2.1,1,2.1,2.1s-1,2.1-2.1,2.1c-1.2,0-2.1-1-2.1-2.1
			S46.5,16.9,47.7,16.9z M56.8,16.9c1.2,0,2.1,1,2.1,2.1s-1,2.1-2.1,2.1c-1.2,0-2.1-1-2.1-2.1S55.7,16.9,56.8,16.9z M29.5,11.3
			c1.2,0,2.1,1,2.1,2.1s-1,2.1-2.1,2.1c-1.2,0-2.1-1-2.1-2.1S28.3,11.3,29.5,11.3z M20.4,11.3c1.2,0,2.1,1,2.1,2.1s-1,2.1-2.1,2.1
			s-2.1-1-2.1-2.1S19.2,11.3,20.4,11.3z M11.3,11.3c1.2,0,2.1,1,2.1,2.1s-1,2.1-2.1,2.1s-2.1-1-2.1-2.1S10.1,11.3,11.3,11.3z
			 M38.6,11.3c1.2,0,2.1,1,2.1,2.1s-1,2.1-2.1,2.1c-1.2,0-2.1-1-2.1-2.1S37.4,11.3,38.6,11.3z M47.7,11.3c1.2,0,2.1,1,2.1,2.1
			s-1,2.1-2.1,2.1c-1.2,0-2.1-1-2.1-2.1S46.5,11.3,47.7,11.3z M29.5,5.6c1.2,0,2.1,1,2.1,2.1s-1,2.1-2.1,2.1c-1.2,0-2.1-1-2.1-2.1
			S28.3,5.6,29.5,5.6z M20.4,5.6c1.2,0,2.1,1,2.1,2.1s-1,2.1-2.1,2.1s-2.1-1-2.1-2.1S19.2,5.6,20.4,5.6z M38.6,5.6
			c1.2,0,2.1,1,2.1,2.1s-1,2.1-2.1,2.1c-1.2,0-2.1-1-2.1-2.1S37.4,5.6,38.6,5.6z M29.5,0c1.2,0,2.1,1,2.1,2.1s-1,2.1-2.1,2.1
			c-1.2,0-2.1-1-2.1-2.1S28.3,0,29.5,0z"></path>
		<path id="prg.ai" fill-rule="evenodd" clip-rule="evenodd" fill="#121E26" d="M72.9,10.9c0,1.6,1.1,2.5,2.4,2.5
			c1.3,0,2.4-1,2.4-2.5c0-1.5-1.1-2.5-2.4-2.5C74,8.4,72.9,9.4,72.9,10.9z M69.7,5.7h3.1V7c0.5-1,1.8-1.5,3.1-1.5c2.7,0,5,2.1,5,5.4
			c0,3.3-2.4,5.5-5,5.5c-1.3,0-2.5-0.5-3.1-1.5v6.4h-3.1V5.7z M85.5,12.4v3.6h-3.1V5.7h3.1v2.5c0.5-1.9,1.9-2.7,2.9-2.7
			c0.7,0,1.3,0.1,1.8,0.4l-0.6,2.8c-0.6-0.3-1.1-0.3-1.6-0.3C86.3,8.3,85.5,9.7,85.5,12.4z M98.4,10.8c0-1.6-1.2-2.5-2.5-2.5
			c-1.3,0-2.5,1-2.5,2.5c0,1.6,1.2,2.5,2.5,2.5C97.1,13.4,98.4,12.4,98.4,10.8z M92.9,16.8c0.4,1,1.6,1.7,2.6,1.7
			c2.4,0,3-1.6,2.9-3.7c-0.5,1-1.8,1.5-3.1,1.5c-2.7,0-5.2-2.1-5.2-5.4c0-3.3,2.5-5.5,5.2-5.5c1.3,0,2.6,0.6,3.1,1.5V5.7h3v9
			c0,4.5-2.2,6.6-5.9,6.6c-2.3,0-4.3-1.3-5.1-3.2C91.2,17.7,92.1,17.2,92.9,16.8z M103.1,14.4c0-1.1,0.9-1.9,1.9-1.9
			c1,0,1.9,0.8,1.9,1.9c0,1.1-0.9,1.9-1.9,1.9C104,16.3,103.1,15.5,103.1,14.4z M116.4,16.1v-1.2c-0.7,1-2.2,1.4-3,1.4
			c-2.7,0-5.3-2.1-5.3-5.4s2.7-5.4,5.3-5.4c0.7,0,2.2,0.2,3,1.4V5.7h3.1v10.4H116.4z M111.2,10.9c0,1.5,1.3,2.5,2.6,2.5
			c1.3,0,2.5-0.9,2.5-2.5s-1.2-2.5-2.5-2.5C112.6,8.4,111.2,9.4,111.2,10.9z M124.6,5.7v10.4h-3.1V5.7H124.6z M121.2,1.8
			c0-1,0.9-1.8,1.9-1.8c1,0,1.9,0.8,1.9,1.8s-0.8,1.8-1.9,1.8C122,3.6,121.2,2.8,121.2,1.8z"></path>
		<path id="MINOR" fill="#3A50DD" d="M72.8,44.3l1.4-11.7l4.7,9.7h2.5l4.7-9.8l1.4,11.7h3.1l-2.1-17.5h-2.7l-5.7,12l-5.7-12h-2.7
			l-2.1,17.5H72.8z M96.3,44.3V26.9h-3.1v17.5H96.3z M102.8,44.3V32.6l7,11.8h2.8V26.9h-3.1v11.7l-6.9-11.7h-2.9v17.5H102.8z
			 M123.8,44.6c5,0,8.9-4.1,8.9-9s-3.9-9-8.9-9c-5,0-8.9,4.1-8.9,9S118.8,44.6,123.8,44.6z M123.7,41.7c-3.3,0-5.7-2.8-5.7-6.1
			c0-3.3,2.4-6.2,5.7-6.2c3.3,0,5.8,2.8,5.8,6.2C129.5,38.9,127.1,41.7,123.7,41.7z M138,44.3V38h1.6l4.3,6.4h3.6l-4.5-6.5
			c2.7-0.4,4.3-2.9,4.3-5.4c0-2.8-1.6-5.6-5.5-5.6h-6.8v17.5H138z M141.1,35.3H138v-5.7h3.5c1.7,0,2.7,1.3,2.7,2.9
			S143.3,35.3,141.1,35.3z"></path>
	</g>
</g>
</svg>